<svg width="22" height="24" viewBox="0 0 22 24" fill="none" xmlns="http://www.w3.org/2000/svg">
<path fill-rule="evenodd" clip-rule="evenodd" d="M0.039917 0V21.4281H19.7542V5.14286L14.6113 0H0.039917Z" fill="#1976D2"/>
<mask id="mask0_5810_36187" style="mask-type:alpha" maskUnits="userSpaceOnUse" x="5" y="14" width="17" height="10">
<path fill-rule="evenodd" clip-rule="evenodd" d="M13.7542 23.9999H21.897V14.5713L5.61145 14.5713V23.9999H13.7542V23.9999Z" fill="white"/>
</mask>
<g mask="url(#mask0_5810_36187)">
<path fill-rule="evenodd" clip-rule="evenodd" d="M19.0459 23.9999H8.46231C6.88774 23.9999 5.61145 22.7231 5.61145 21.1486V17.4226C5.61145 15.848 6.88774 14.5713 8.46231 14.5713H19.0459C20.6205 14.5713 21.8972 15.848 21.8972 17.4226V21.1486C21.8972 22.7231 20.6205 23.9999 19.0459 23.9999" fill="#131B28"/>
</g>
<path d="M11.9563 20.4126C11.9426 20.7095 11.8625 20.9722 11.7161 21.2007C11.5696 21.4272 11.3635 21.603 11.0979 21.728C10.8342 21.853 10.5325 21.9155 10.1926 21.9155C9.63208 21.9155 9.19067 21.7329 8.86841 21.3677C8.54614 21.0024 8.38501 20.4868 8.38501 19.8208V19.6099C8.38501 19.1919 8.45728 18.8267 8.60181 18.5142C8.74829 18.1997 8.95825 17.9575 9.23169 17.7876C9.50513 17.6157 9.82153 17.5298 10.1809 17.5298C10.6985 17.5298 11.1145 17.6665 11.429 17.9399C11.7434 18.2114 11.9221 18.5864 11.9651 19.0649H10.9397C10.9319 18.8052 10.8665 18.6187 10.7434 18.5054C10.6204 18.3921 10.4329 18.3354 10.1809 18.3354C9.92505 18.3354 9.73755 18.4312 9.61841 18.6226C9.49927 18.814 9.43677 19.1196 9.43091 19.5396V19.8413C9.43091 20.2964 9.48755 20.6216 9.60083 20.8169C9.71606 21.0122 9.91333 21.1099 10.1926 21.1099C10.429 21.1099 10.6096 21.0542 10.7346 20.9429C10.8596 20.8315 10.926 20.6548 10.9338 20.4126H11.9563ZM14.6428 20.7231C14.6428 20.5728 14.5891 20.4556 14.4817 20.3716C14.3762 20.2876 14.1897 20.2007 13.9221 20.1108C13.6545 20.021 13.4358 19.9341 13.2659 19.8501C12.7131 19.5786 12.4368 19.2056 12.4368 18.731C12.4368 18.4946 12.5051 18.2866 12.6418 18.1069C12.7805 17.9253 12.9758 17.7847 13.2278 17.6851C13.4797 17.5835 13.7629 17.5327 14.0774 17.5327C14.384 17.5327 14.6584 17.5874 14.9006 17.6968C15.1448 17.8062 15.3342 17.9624 15.469 18.1655C15.6038 18.3667 15.6711 18.5972 15.6711 18.8569H14.6458C14.6458 18.6831 14.592 18.5483 14.4846 18.4526C14.3792 18.3569 14.2356 18.3091 14.054 18.3091C13.8704 18.3091 13.7249 18.3501 13.6174 18.4321C13.512 18.5122 13.4592 18.6147 13.4592 18.7397C13.4592 18.8491 13.5178 18.9487 13.635 19.0386C13.7522 19.1265 13.9583 19.2183 14.2532 19.314C14.5481 19.4077 14.7903 19.5093 14.9797 19.6187C15.4407 19.8843 15.6711 20.2505 15.6711 20.7173C15.6711 21.0903 15.5305 21.3833 15.2493 21.5962C14.968 21.8091 14.5823 21.9155 14.092 21.9155C13.7463 21.9155 13.4329 21.854 13.1516 21.731C12.8723 21.606 12.6614 21.436 12.5188 21.2212C12.3782 21.0044 12.3079 20.7554 12.3079 20.4741H13.3391C13.3391 20.7026 13.3977 20.8716 13.5149 20.981C13.634 21.0884 13.8264 21.1421 14.092 21.1421C14.262 21.1421 14.3958 21.106 14.4934 21.0337C14.593 20.9595 14.6428 20.856 14.6428 20.7231ZM18.3987 20.7231C18.3987 20.5728 18.345 20.4556 18.2375 20.3716C18.1321 20.2876 17.9456 20.2007 17.678 20.1108C17.4104 20.021 17.1917 19.9341 17.0217 19.8501C16.469 19.5786 16.1926 19.2056 16.1926 18.731C16.1926 18.4946 16.261 18.2866 16.3977 18.1069C16.5364 17.9253 16.7317 17.7847 16.9836 17.6851C17.2356 17.5835 17.5188 17.5327 17.8333 17.5327C18.1399 17.5327 18.4143 17.5874 18.6565 17.6968C18.9006 17.8062 19.0901 17.9624 19.2249 18.1655C19.3596 18.3667 19.427 18.5972 19.427 18.8569H18.4016C18.4016 18.6831 18.3479 18.5483 18.2405 18.4526C18.135 18.3569 17.9915 18.3091 17.8098 18.3091C17.6262 18.3091 17.4807 18.3501 17.3733 18.4321C17.2678 18.5122 17.2151 18.6147 17.2151 18.7397C17.2151 18.8491 17.2737 18.9487 17.3909 19.0386C17.5081 19.1265 17.7141 19.2183 18.009 19.314C18.304 19.4077 18.5461 19.5093 18.7356 19.6187C19.1965 19.8843 19.427 20.2505 19.427 20.7173C19.427 21.0903 19.2864 21.3833 19.0051 21.5962C18.7239 21.8091 18.3381 21.9155 17.8479 21.9155C17.5022 21.9155 17.1887 21.854 16.9075 21.731C16.6282 21.606 16.4172 21.436 16.2747 21.2212C16.134 21.0044 16.0637 20.7554 16.0637 20.4741H17.095C17.095 20.7026 17.1536 20.8716 17.2708 20.981C17.3899 21.0884 17.5823 21.1421 17.8479 21.1421C18.0178 21.1421 18.1516 21.106 18.2493 21.0337C18.3489 20.9595 18.3987 20.856 18.3987 20.7231Z" fill="white"/>
<path fill-rule="evenodd" clip-rule="evenodd" d="M14.6112 5.14286H19.7541L14.6112 0V5.14286Z" fill="#0D47A1"/>
<path fill-rule="evenodd" clip-rule="evenodd" d="M5.38412 9.04161L7.79826 9.85375V11.2085L3.89697 9.61975V8.44589L7.79826 6.85718V8.20761L5.38412 9.04161Z" fill="white"/>
<path fill-rule="evenodd" clip-rule="evenodd" d="M9.23745 12.12H8.18274L10.3762 5.14282H11.4352L9.23745 12.12Z" fill="white"/>
<path fill-rule="evenodd" clip-rule="evenodd" d="M14.4407 9.02403L12.0398 8.20761V6.85718L15.9192 8.44589V9.61975L12.0398 11.2085V9.85803L14.4407 9.02403Z" fill="white"/>
</svg>
