<svg width="25" height="24" viewBox="0 0 25 24" fill="none" xmlns="http://www.w3.org/2000/svg">
<path fill-rule="evenodd" clip-rule="evenodd" d="M0.75415 5.14286C0.75415 2.30253 3.05669 0 5.89701 0H19.6113C22.4516 0 24.7542 2.30254 24.7542 5.14286V18.8571C24.7542 21.6975 22.4516 24 19.6113 24H5.89701C3.05669 24 0.75415 21.6975 0.75415 18.8571V5.14286Z" fill="#113228"/>
<path fill-rule="evenodd" clip-rule="evenodd" d="M11.5114 3.85718H14.3145V16.8319C12.8766 17.1048 11.8207 17.214 10.6741 17.214C7.25227 17.214 5.46838 15.6671 5.46838 12.7C5.46838 9.84232 7.36147 7.98587 10.2919 7.98587C10.747 7.98587 11.0928 8.02204 11.5114 8.13124V3.85718ZM11.5113 10.3883C11.1837 10.2792 10.9107 10.2428 10.5649 10.2428C9.14515 10.2428 8.32601 11.1165 8.32601 12.6454C8.32601 14.138 9.10875 14.957 10.5467 14.957C10.856 14.957 11.1108 14.9388 11.5113 14.8844V10.3883ZM18.7738 8.18597V14.684C18.7738 16.9228 18.61 17.9967 18.1185 18.925C17.6634 19.817 17.0627 20.3812 15.8249 21.0001L13.2222 19.7623C14.4598 19.1799 15.0605 18.6704 15.4426 17.8874C15.8431 17.0866 15.9708 16.1584 15.9708 13.7193V8.18597H18.7738ZM18.7738 6.74802H15.9708V3.87211H18.7738V6.74802Z" fill="white"/>
</svg>
