<svg width="25" height="24" viewBox="0 0 25 24" fill="none" xmlns="http://www.w3.org/2000/svg">
<path fill-rule="evenodd" clip-rule="evenodd" d="M24.3016 10.9311L13.8222 0.452571C13.2196 -0.150857 12.2407 -0.150857 11.6369 0.452571L9.46101 2.62886L12.221 5.38929C12.8626 5.17243 13.598 5.31771 14.1093 5.829C14.6232 6.34371 14.7676 7.08557 14.5456 7.72929L17.2057 10.3894C17.8494 10.1679 18.5917 10.311 19.1056 10.8257C19.8243 11.544 19.8243 12.708 19.1056 13.4267C18.3873 14.1454 17.2233 14.1454 16.5042 13.4267C15.9642 12.8859 15.8304 12.0921 16.1039 11.4266L13.6233 8.94557L13.6229 15.474C13.7982 15.561 13.9632 15.6767 14.1093 15.822C14.8276 16.5403 14.8276 17.7039 14.1093 18.4234C13.391 19.1417 12.2266 19.1417 11.5087 18.4234C10.7904 17.7039 10.7904 16.5403 11.5087 15.822C11.6862 15.6446 11.8919 15.5104 12.1109 15.4209V8.83114C11.8914 8.74157 11.6866 8.60871 11.5087 8.43C10.9644 7.88614 10.8333 7.08771 11.1123 6.41914L8.39172 3.69771L1.20672 10.8827C0.603293 11.4866 0.603293 12.4654 1.20672 13.0689L11.6853 23.5474C12.2887 24.1509 13.2672 24.1509 13.8714 23.5474L24.3016 13.1186C24.905 12.5147 24.905 11.5359 24.3016 10.932" fill="#EE3C2E"/>
</svg>
