<svg width="22" height="24" viewBox="0 0 22 24" fill="none" xmlns="http://www.w3.org/2000/svg">
<path fill-rule="evenodd" clip-rule="evenodd" d="M0 0V21.4281H19.7143V5.14286L14.5714 0H0Z" fill="#F4511E"/>
<path fill-rule="evenodd" clip-rule="evenodd" d="M18.6526 23.9999H4.49007C2.7205 23.9999 1.28564 22.565 1.28564 20.7954V17.7757C1.28564 16.0061 2.7205 14.5713 4.49007 14.5713H18.6526C20.4222 14.5713 21.8571 16.0061 21.8571 17.7757V20.7954C21.8571 22.565 20.4222 23.9999 18.6526 23.9999" fill="#131B28"/>
<path d="M7.74487 21.8574H6.72241V20.0762H5.20776V21.8574H4.17944V17.5918H5.20776V19.2852H6.72241V17.5918H7.74487V21.8574ZM11.6598 18.3857H10.3796V21.8574H9.35123V18.3857H8.0944V17.5918H11.6598V18.3857ZM13.4469 17.5918L14.3991 20.5596L15.3483 17.5918H16.7018V21.8574H15.6706V20.8613L15.7702 18.8223L14.7389 21.8574H14.0592L13.0251 18.8193L13.1247 20.8613V21.8574H12.0963V17.5918H13.4469ZM18.3864 21.0664H20.1764V21.8574H17.3581V17.5918H18.3864V21.0664Z" fill="white"/>
<path fill-rule="evenodd" clip-rule="evenodd" d="M14.5715 5.14286H19.7144L14.5715 0V5.14286Z" fill="#BF360C"/>
<path fill-rule="evenodd" clip-rule="evenodd" d="M5.34432 9.04185L7.75846 9.85399V11.2087L3.85718 9.61999V8.44614L7.75846 6.85742V8.20785L5.34432 9.04185Z" fill="white"/>
<path fill-rule="evenodd" clip-rule="evenodd" d="M9.19754 12.1197H8.14282L10.3363 5.14258H11.3953L9.19754 12.1197Z" fill="white"/>
<path fill-rule="evenodd" clip-rule="evenodd" d="M14.4009 9.02428L12 8.20785V6.85742L15.8794 8.44614V9.61999L12 11.2087V9.85828L14.4009 9.02428Z" fill="white"/>
</svg>
