<svg width="25" height="24" viewBox="0 0 25 24" fill="none" xmlns="http://www.w3.org/2000/svg">
<path fill-rule="evenodd" clip-rule="evenodd" d="M0.75415 23.5715H23.4684V0.857178H0.75415V23.5715Z" fill="#F5DD1E"/>
<path fill-rule="evenodd" clip-rule="evenodd" d="M0.75415 24H24.7542V0H0.75415V24ZM2.03986 22.7143H23.4684V1.28571H2.03986V22.7143Z" fill="black"/>
<path fill-rule="evenodd" clip-rule="evenodd" d="M8.00697 17.2339C8.3314 17.8095 8.62668 18.2964 9.3364 18.2964C10.0148 18.2964 10.443 18.0307 10.443 16.9982V9.9748H12.5087V17.0265C12.5087 19.1651 11.2547 20.1388 9.42426 20.1388C7.7704 20.1388 6.81254 19.2829 6.32568 18.2518L8.00697 17.2339ZM15.3039 17.0548C15.7466 17.7778 16.3226 18.3092 17.3418 18.3092C18.1976 18.3092 18.7441 17.8815 18.7441 17.2905C18.7441 16.5821 18.1826 16.3314 17.2406 15.9191L16.7242 15.6975C15.2336 15.0628 14.2432 14.2669 14.2432 12.5852C14.2432 11.0359 15.4235 9.85693 17.2685 9.85693C18.5816 9.85693 19.5258 10.3138 20.2064 11.5108L18.5979 12.5436C18.2435 11.9085 17.8616 11.6582 17.2685 11.6582C16.6634 11.6582 16.2798 12.0422 16.2798 12.5436C16.2798 13.1629 16.6638 13.4141 17.5501 13.7976L18.0665 14.0192C19.8215 14.7718 20.8124 15.5389 20.8124 17.2639C20.8124 19.1235 19.3514 20.1426 17.3894 20.1426C15.4711 20.1426 14.2316 19.2285 13.6252 18.0302L15.3039 17.0548Z" fill="black"/>
</svg>
