<svg width="27" height="25" viewBox="0 0 27 25" fill="none" xmlns="http://www.w3.org/2000/svg">
<path fill-rule="evenodd" clip-rule="evenodd" d="M0 0.843262V22.4115H19.8431V6.01973L14.6667 0.843262H0Z" fill="#1976D2"/>
<rect x="2" y="16" width="25" height="9" rx="3" fill="#131B28"/>
<path d="M8.91016 22.804H7.88101L6.35941 20.1323V22.804H5.32437V18.5104H6.35941L7.87806 21.1821V18.5104H8.91016V22.804ZM13.2007 20.7457C13.2007 21.1644 13.1231 21.535 12.9678 21.8574C12.8124 22.1798 12.5913 22.4285 12.3043 22.6034C12.0192 22.7764 11.6939 22.8629 11.3282 22.8629C10.9625 22.8629 10.6382 22.7794 10.3551 22.6123C10.072 22.4432 9.85084 22.2024 9.6916 21.8898C9.53433 21.5772 9.45176 21.2185 9.4439 20.8135V20.5717C9.4439 20.151 9.52057 19.7804 9.6739 19.46C9.82921 19.1376 10.0504 18.8889 10.3374 18.7139C10.6264 18.539 10.9547 18.4515 11.3223 18.4515C11.686 18.4515 12.0104 18.538 12.2954 18.711C12.5805 18.884 12.8016 19.1307 12.9589 19.4511C13.1181 19.7696 13.1987 20.1353 13.2007 20.5481V20.7457ZM12.148 20.5658C12.148 20.1392 12.0762 19.8158 11.9327 19.5956C11.7912 19.3735 11.5877 19.2624 11.3223 19.2624C10.8033 19.2624 10.5291 19.6516 10.4996 20.4301L10.4966 20.7457C10.4966 21.1664 10.5664 21.4898 10.706 21.7158C10.8456 21.9419 11.053 22.055 11.3282 22.055C11.5897 22.055 11.7912 21.9439 11.9327 21.7217C12.0743 21.4996 12.146 21.1801 12.148 20.7634V20.5658ZM15.949 21.6628C15.949 21.5114 15.895 21.3934 15.7868 21.3089C15.6807 21.2244 15.4929 21.1369 15.2236 21.0464C14.9543 20.956 14.7341 20.8685 14.5631 20.784C14.0067 20.5107 13.7286 20.1353 13.7286 19.6575C13.7286 19.4197 13.7974 19.2103 13.935 19.0294C14.0746 18.8466 14.2711 18.7051 14.5247 18.6048C14.7783 18.5026 15.0634 18.4515 15.3799 18.4515C15.6885 18.4515 15.9648 18.5065 16.2085 18.6166C16.4543 18.7267 16.645 18.884 16.7806 19.0884C16.9162 19.2909 16.9841 19.5229 16.9841 19.7843H15.952C15.952 19.6094 15.8979 19.4737 15.7898 19.3774C15.6836 19.2811 15.5391 19.2329 15.3563 19.2329C15.1715 19.2329 15.0251 19.2742 14.9169 19.3568C14.8108 19.4374 14.7577 19.5406 14.7577 19.6664C14.7577 19.7765 14.8167 19.8767 14.9346 19.9672C15.0526 20.0556 15.26 20.148 15.5568 20.2444C15.8537 20.3387 16.0975 20.441 16.2881 20.551C16.7521 20.8184 16.9841 21.187 16.9841 21.6569C16.9841 22.0323 16.8425 22.3272 16.5594 22.5415C16.2763 22.7558 15.8881 22.8629 15.3946 22.8629C15.0467 22.8629 14.7312 22.801 14.4481 22.6772C14.1669 22.5513 13.9546 22.3803 13.8111 22.1641C13.6696 21.9458 13.5988 21.6952 13.5988 21.4121H14.6368C14.6368 21.6421 14.6958 21.8122 14.8137 21.9223C14.9336 22.0304 15.1273 22.0844 15.3946 22.0844C15.5657 22.0844 15.7003 22.0481 15.7986 21.9753C15.8989 21.9006 15.949 21.7964 15.949 21.6628ZM21.1567 20.7457C21.1567 21.1428 21.0908 21.4898 20.9591 21.7866C20.8274 22.0815 20.6455 22.3184 20.4136 22.4973L21.1065 23.0458L20.4666 23.5883L19.5437 22.8452C19.4572 22.857 19.3707 22.8629 19.2842 22.8629C18.9185 22.8629 18.5941 22.7784 18.311 22.6093C18.028 22.4403 17.8068 22.1985 17.6476 21.8839C17.4903 21.5694 17.4087 21.2077 17.4028 20.7987V20.5717C17.4028 20.149 17.4795 19.7775 17.6328 19.457C17.7881 19.1366 18.0083 18.8889 18.2934 18.7139C18.5804 18.539 18.9087 18.4515 19.2783 18.4515C19.642 18.4515 19.9663 18.538 20.2514 18.711C20.5364 18.884 20.7576 19.1307 20.9149 19.4511C21.0741 19.7696 21.1547 20.1353 21.1567 20.5481V20.7457ZM20.1039 20.5658C20.1039 20.1392 20.0322 19.8158 19.8887 19.5956C19.7471 19.3735 19.5437 19.2624 19.2783 19.2624C19.005 19.2624 18.7996 19.3715 18.662 19.5897C18.5243 19.8079 18.4546 20.1274 18.4526 20.5481V20.7457C18.4526 21.1683 18.5224 21.4927 18.662 21.7188C18.8015 21.9429 19.0089 22.055 19.2842 22.055C19.5476 22.055 19.7491 21.9439 19.8887 21.7217C20.0302 21.4996 20.102 21.1801 20.1039 20.7634V20.5658ZM22.7196 22.0078H24.5213V22.804H21.6845V18.5104H22.7196V22.0078Z" fill="white"/>
<path fill-rule="evenodd" clip-rule="evenodd" d="M14.6665 6.01973H19.843L14.6665 0.843262V6.01973Z" fill="#0D47A1"/>
<path fill-rule="evenodd" clip-rule="evenodd" d="M5.37919 9.94382L7.80911 10.7613V12.1248L3.88232 10.5257V9.34422L7.80911 7.74512V9.10437L5.37919 9.94382Z" fill="white"/>
<path fill-rule="evenodd" clip-rule="evenodd" d="M9.2579 13.0423H8.19629L10.4041 6.01953H11.47L9.2579 13.0423Z" fill="white"/>
<path fill-rule="evenodd" clip-rule="evenodd" d="M14.4947 9.92614L12.0781 9.10437V7.74512L15.9829 9.34422V10.5257L12.0781 12.1248V10.7656L14.4947 9.92614Z" fill="white"/>
</svg>
