<svg width="21" height="24" viewBox="0 0 21 24" fill="none" xmlns="http://www.w3.org/2000/svg">
<path fill-rule="evenodd" clip-rule="evenodd" d="M7.53416 1.90362C8.04702 1.90362 8.46595 2.39275 8.46595 2.99408C8.46595 3.59319 8.04702 4.07774 7.53416 4.07774C7.01937 4.07774 6.60237 3.59319 6.60237 2.99408C6.60237 2.39275 7.01937 1.90362 7.53416 1.90362ZM10.2195 0.155034C9.37058 0.159616 8.55999 0.242838 7.84667 0.387848C5.74545 0.814305 5.36395 1.70698 5.36395 3.35324V5.52735H10.3294V6.25211H5.36395H3.50037C2.05727 6.25211 0.793647 7.24855 0.398388 9.14433C-0.0574719 11.3173 -0.077801 12.6732 0.398388 14.9421C0.751316 16.6309 1.59433 17.8343 3.03743 17.8343H4.74469V15.228C4.74469 13.345 6.16271 11.6841 7.84667 11.6841H12.8063C14.187 11.6841 15.2892 10.3782 15.2892 8.78528V3.35324C15.2892 1.8072 14.154 0.645792 12.8063 0.387848C11.9534 0.224656 11.0683 0.150599 10.2195 0.155034Z" fill="#306998"/>
<path fill-rule="evenodd" clip-rule="evenodd" d="M13.1188 20.0084C13.6336 20.0084 14.0506 20.493 14.0506 21.0922C14.0506 21.6936 13.6336 22.1825 13.1188 22.1825C12.6059 22.1825 12.187 21.6936 12.187 21.0922C12.187 20.493 12.6059 20.0084 13.1188 20.0084ZM15.9082 6.25208V8.78524C15.9082 10.7493 14.459 12.4022 12.8063 12.4022H7.84662C6.48804 12.4022 5.36377 13.7381 5.36377 15.3011V20.7333C5.36377 22.2793 6.53398 23.1885 7.84662 23.6321C9.41839 24.1631 10.9256 24.259 12.8063 23.6321C14.0564 23.2163 15.289 22.3795 15.289 20.7333V18.559H10.3293V17.8344H15.289H17.7718C19.2149 17.8344 19.7526 16.6779 20.2545 14.942C20.7729 13.1552 20.7509 11.4367 20.2545 9.14429C19.8979 7.4939 19.2167 6.25208 17.7718 6.25208H15.9082Z" fill="#FFD43C"/>
</svg>
